# xmcd
#
# Track frame offsets: 
#        180
#        15141
#        32386
#        46407
#        60964
#        71917
#        88957
#        102429
#        115900
#        127390
#        148678
#        165836
#        176575
#        194562
#
# Disc length: 2797 seconds
#
# Revision: 0
# Processed by: cddbd v1.4PL0 Copyright (c) Steve Scherf et al.
# Submitted via: ExactAudioCopy v0.90b3
#
DISCID=bf0aeb0e
DTITLE=Tumbleweed - Living In A Country World
DYEAR=1994
DGENRE=Country
TTITLE0=Living In Our Country World
TTITLE1=The Wealth Of The Cowboy
TTITLE2=He's One Of Love
TTITLE3=I Don't Want Flowers
TTITLE4=Who'll Sing For Me
TTITLE5=A Good Imitation Of The Blues
TTITLE6=Panhandle Rag
TTITLE7=Love Has Caught You Be Surprise
TTITLE8=This Is The Girl I Love
TTITLE9=Grandmother's Song
TTITLE10=The Touch Of The Master's Hand
TTITLE11=Children Go Where I Send Thee
TTITLE12=The Desert Blues
TTITLE13=Today Has Been A Lonesome Day
EXTD=
EXTT0=
EXTT1=
EXTT2=
EXTT3=
EXTT4=
EXTT5=
EXTT6=
EXTT7=
EXTT8=
EXTT9=
EXTT10=
EXTT11=
EXTT12=
EXTT13=
PLAYORDER=
